<?xml version="1.0" standalone="no"?>
<!DOCTYPE svg PUBLIC "-//W3C//DTD SVG 20010904//EN"
 "http://www.w3.org/TR/2001/REC-SVG-20010904/DTD/svg10.dtd">
<svg version="1.0" xmlns="http://www.w3.org/2000/svg"
 width="1600.000000pt" height="896.000000pt" viewBox="0 0 1600.000000 896.000000"
 preserveAspectRatio="xMidYMid meet">

<g transform="translate(0.000000,896.000000) scale(0.100000,-0.100000)"
fill="#000000" stroke="none">
<path d="M8135 7035 c-661 -108 -1159 -584 -1270 -1215 -30 -172 -14 -443 36
-604 l18 -60 -37 -75 c-35 -71 -37 -80 -37 -170 0 -83 4 -104 27 -153 15 -32
39 -73 53 -93 l27 -35 -928 -2 -929 -3 -48 -22 c-68 -32 -150 -114 -177 -175
-29 -68 -35 -137 -21 -250 6 -51 27 -228 46 -393 51 -435 94 -795 109 -916 15
-123 40 -183 99 -242 48 -48 134 -89 200 -95 44 -4 48 -7 43 -26 -15 -54 -76
-336 -82 -379 l-6 -48 -192 1 c-105 0 -199 1 -209 0 -27 0 -57 -37 -57 -70 0
-19 9 -40 25 -55 l24 -25 3151 0 3151 0 24 25 c30 29 33 74 8 104 -18 21 -23
21 -438 22 -231 1 -411 5 -400 9 11 4 56 17 100 29 160 44 294 121 422 244
194 186 292 411 293 670 0 261 -95 483 -289 677 -135 135 -246 204 -463 291
-169 67 -228 120 -228 205 0 57 41 94 106 94 40 0 50 -6 104 -55 74 -68 113
-74 162 -25 30 30 30 33 26 108 -6 92 -32 154 -92 216 -173 178 -479 190 -691
28 -132 -100 -202 -274 -175 -435 28 -162 116 -272 350 -437 268 -189 394
-353 416 -542 13 -111 -44 -221 -140 -270 -58 -30 -173 -35 -250 -11 l-60 18
-17 90 c-68 347 -290 658 -634 885 l-76 51 5 52 c3 29 10 135 16 237 14 251
12 241 68 281 298 213 496 533 557 898 26 154 17 399 -20 539 -66 253 -180
462 -353 644 -226 236 -499 387 -822 453 -110 23 -412 28 -525 10z m-83 -290
c16 -36 -6 -53 -114 -94 -331 -122 -608 -411 -721 -751 -36 -108 -49 -187 -56
-339 -5 -113 -9 -136 -23 -145 -13 -8 -23 -8 -35 0 -15 9 -18 29 -21 125 -3
131 7 209 43 335 116 397 403 705 805 864 92 36 107 37 122 5z m-735 -1634
c79 -40 123 -112 123 -201 0 -128 -97 -224 -225 -224 -137 0 -233 105 -222
243 13 161 181 256 324 182z m1120 0 c79 -40 123 -112 123 -201 0 -247 -341
-311 -437 -83 -18 43 -17 125 3 171 50 120 195 173 311 113z m-1454 -642 c48
-13 103 -61 116 -102 17 -52 193 -1499 187 -1536 -7 -44 -47 -101 -88 -126
-31 -19 -55 -20 -475 -23 -386 -3 -443 -1 -443 12 0 24 94 340 153 511 61 178
61 200 3 236 -29 18 -54 19 -361 19 -294 0 -334 -2 -365 -18 -32 -16 -40 -31
-122 -237 -49 -121 -112 -289 -140 -372 l-52 -153 -36 0 c-81 0 -154 40 -186
102 -9 18 -28 142 -49 326 -19 163 -57 487 -85 720 -27 233 -50 438 -50 456 0
81 84 175 168 187 82 11 1783 10 1825 -2z m-683 -1173 c0 -8 -5 -27 -11 -43
-31 -81 -123 -388 -158 -528 -66 -265 -119 -574 -106 -615 7 -23 32 -20 -260
-25 -234 -4 -342 3 -350 22 -5 15 28 175 71 343 57 219 137 449 254 733 l52
127 254 0 c214 0 254 -2 254 -14z m2601 -439 c12 -44 2 -85 -24 -101 -27 -17
-35 6 -34 107 l0 90 24 -29 c13 -16 28 -46 34 -67z m-371 -633 c13 -33 -12
-88 -52 -117 -26 -20 -47 -20 -935 -19 -499 0 -993 1 -1097 1 l-189 1 -33 36
c-28 29 -34 43 -34 80 l0 44 1165 0 1165 0 10 -26z m1195 -95 c44 -16 93 -29
108 -29 16 0 26 -4 22 -10 -6 -10 -292 -13 -332 -3 -19 4 -15 10 35 44 33 22
63 36 72 32 8 -3 51 -19 95 -34z"/>
<path d="M7158 5005 c-33 -19 -58 -63 -58 -104 0 -70 49 -116 121 -116 148 0
154 218 7 231 -27 3 -53 -1 -70 -11z"/>
<path d="M8278 5005 c-15 -9 -35 -29 -43 -45 -46 -90 20 -190 118 -177 137 18
133 221 -5 233 -27 3 -53 -1 -70 -11z"/>
</g>
</svg>
