<svg xmlns="http://www.w3.org/2000/svg" viewBox="0 0 880 720" font-family="-apple-system,BlinkMacSystemFont,'Segoe UI',Roboto,sans-serif">
  <defs>
    <marker id="a" viewBox="0 0 10 10" refX="8" refY="5" markerWidth="6" markerHeight="6" orient="auto-start-reverse">
      <path d="M2 1L8 5L2 9" fill="none" stroke="context-stroke" stroke-width="1.5" stroke-linecap="round" stroke-linejoin="round"/>
    </marker>
    <filter id="shadow" x="-4%" y="-4%" width="108%" height="112%">
      <feDropShadow dx="0" dy="1" stdDeviation="2" flood-opacity="0.06"/>
    </filter>
  </defs>

  <!-- Background -->
  <rect width="880" height="720" rx="16" fill="#f8f9fb"/>

  <!-- Title -->
  <text x="440" y="36" text-anchor="middle" font-size="18" font-weight="700" fill="#1a1a2e">sqldpass.com — Infrastructure Architecture</text>

  <!-- ===== USER ===== -->
  <rect x="340" y="56" width="200" height="42" rx="21" fill="#fff" stroke="#9ca3af" stroke-width="1" filter="url(#shadow)"/>
  <text x="370" y="82" font-size="15">🌐</text>
  <text x="393" y="82" font-size="13" font-weight="600" fill="#374151">사용자 브라우저</text>

  <!-- Arrow: User → Frontend -->
  <line x1="440" y1="98" x2="440" y2="128" stroke="#7F77DD" stroke-width="1.5" marker-end="url(#a)"/>
  <text x="448" y="118" font-size="10" fill="#7F77DD" font-weight="500">HTTPS</text>

  <!-- ===== VERCEL ===== -->
  <rect x="280" y="130" width="320" height="62" rx="12" fill="#F5F4FE" stroke="#AFA9EC" stroke-width="1"/>
  <text x="296" y="148" font-size="10" font-weight="600" fill="#7F77DD" letter-spacing="0.5">VERCEL</text>
  <rect x="310" y="156" width="260" height="30" rx="6" fill="#fff" stroke="#CECBF6" stroke-width="0.8"/>
  <text x="340" y="176" font-size="12" font-weight="600" fill="#534AB7">▲  Next.js</text>
  <text x="460" y="176" font-size="10" fill="#7F77DD">www.sqldpass.com</text>

  <!-- Arrow: Frontend → Nginx -->
  <path d="M360 192 L360 216 L230 216 L230 248" fill="none" stroke="#1D9E75" stroke-width="1.5" marker-end="url(#a)"/>
  <text x="240" y="214" font-size="10" fill="#1D9E75" font-weight="500">rewrites</text>

  <!-- ===== OCI NGINX ===== -->
  <rect x="60" y="250" width="340" height="110" rx="12" fill="#EFFAF5" stroke="#5DCAA5" stroke-width="1"/>
  <text x="76" y="268" font-size="10" font-weight="600" fill="#0F6E56" letter-spacing="0.5">OCI — E2.1.MICRO #1</text>

  <rect x="80" y="280" width="180" height="60" rx="8" fill="#fff" stroke="#9FE1CB" stroke-width="0.8" filter="url(#shadow)"/>
  <text x="108" y="304" font-size="13" font-weight="600" fill="#085041">⚡ nginx</text>
  <text x="108" y="322" font-size="10" fill="#0F6E56">api.sqldpass.com · HTTPS/443</text>

  <rect x="280" y="288" width="100" height="40" rx="6" fill="#fff" stroke="#9FE1CB" stroke-width="0.8"/>
  <text x="300" y="313" font-size="11" fill="#0F6E56">📋 Promtail</text>

  <!-- Arrow: Nginx → Backend -->
  <line x1="170" y1="340" x2="170" y2="390" stroke="#378ADD" stroke-width="1.5" marker-end="url(#a)"/>
  <text x="178" y="372" font-size="10" fill="#378ADD" font-weight="500">VCN :8080</text>

  <!-- ===== OCI BACKEND ===== -->
  <rect x="60" y="392" width="420" height="110" rx="12" fill="#EDF5FC" stroke="#85B7EB" stroke-width="1"/>
  <text x="76" y="410" font-size="10" font-weight="600" fill="#185FA5" letter-spacing="0.5">OCI — ARM A1 2GB (백엔드)</text>

  <rect x="80" y="422" width="170" height="60" rx="8" fill="#fff" stroke="#B5D4F4" stroke-width="0.8" filter="url(#shadow)"/>
  <text x="108" y="446" font-size="13" font-weight="600" fill="#0C447C">🍃 Spring Boot</text>
  <text x="108" y="464" font-size="10" fill="#185FA5">:8080 · REST API</text>

  <rect x="270" y="422" width="120" height="60" rx="8" fill="#fff" stroke="#B5D4F4" stroke-width="0.8" filter="url(#shadow)"/>
  <text x="292" y="446" font-size="13" font-weight="600" fill="#0C447C">🗄 MySQL 8</text>
  <text x="292" y="464" font-size="10" fill="#185FA5">데이터 저장소</text>

  <rect x="410" y="432" width="54" height="32" rx="6" fill="#fff" stroke="#B5D4F4" stroke-width="0.8"/>
  <text x="420" y="453" font-size="10" fill="#185FA5">📋 P</text>

  <!-- Arrow: Backend → MySQL -->
  <line x1="250" y1="452" x2="268" y2="452" stroke="#378ADD" stroke-width="1.2" marker-end="url(#a)"/>

  <!-- ===== OCI OBSERVABILITY ===== -->
  <rect x="60" y="540" width="420" height="90" rx="12" fill="#FEF0EB" stroke="#F0997B" stroke-width="1"/>
  <text x="76" y="558" font-size="10" font-weight="600" fill="#993C1D" letter-spacing="0.5">OCI — E2.1.MICRO #2 (관측)</text>

  <rect x="80" y="568" width="110" height="44" rx="6" fill="#fff" stroke="#F5C4B3" stroke-width="0.8"/>
  <text x="100" y="595" font-size="12" font-weight="600" fill="#712B13">📊 Loki</text>

  <rect x="210" y="568" width="110" height="44" rx="6" fill="#fff" stroke="#F5C4B3" stroke-width="0.8"/>
  <text x="226" y="595" font-size="12" font-weight="600" fill="#712B13">📈 Grafana</text>

  <rect x="340" y="568" width="110" height="44" rx="6" fill="#fff" stroke="#F5C4B3" stroke-width="0.8"/>
  <text x="365" y="595" font-size="12" font-weight="600" fill="#712B13">⚡ nginx</text>

  <!-- Arrow: Loki → Grafana -->
  <line x1="190" y1="590" x2="208" y2="590" stroke="#D85A30" stroke-width="1.2" marker-end="url(#a)"/>
  <!-- Arrow: nginx → Grafana -->
  <line x1="340" y1="590" x2="322" y2="590" stroke="#D85A30" stroke-width="1.2" marker-end="url(#a)"/>

  <!-- Promtail → Loki dashed -->
  <path d="M330 328 L330 530 L135 530 L135 566" fill="none" stroke="#D85A30" stroke-width="1" stroke-dasharray="5 3" marker-end="url(#a)"/>
  <path d="M437 464 L437 530 L135 530" fill="none" stroke="#D85A30" stroke-width="1" stroke-dasharray="5 3"/>

  <!-- ===== EXTERNAL SERVICES ===== -->
  <rect x="530" y="250" width="310" height="252" rx="12" fill="#FDF0F4" stroke="#ED93B1" stroke-width="1"/>
  <text x="546" y="268" font-size="10" font-weight="600" fill="#993556" letter-spacing="0.5">외부 서비스</text>

  <rect x="550" y="282" width="270" height="38" rx="6" fill="#fff" stroke="#F4C0D1" stroke-width="0.8"/>
  <text x="572" y="306" font-size="12" font-weight="600" fill="#72243E">🤖 Spring AI</text>
  <text x="672" y="306" font-size="10" fill="#993556">Anthropic / Gemini / OpenAI</text>

  <rect x="550" y="330" width="270" height="38" rx="6" fill="#fff" stroke="#F4C0D1" stroke-width="0.8"/>
  <text x="572" y="354" font-size="12" font-weight="600" fill="#72243E">🔐 Google OAuth</text>
  <text x="692" y="354" font-size="10" fill="#993556">소셜 로그인</text>

  <rect x="550" y="378" width="270" height="38" rx="6" fill="#fff" stroke="#F4C0D1" stroke-width="0.8"/>
  <text x="572" y="402" font-size="12" font-weight="600" fill="#72243E">📦 ghcr.io</text>
  <text x="652" y="402" font-size="10" fill="#993556">Docker 이미지 레지스트리</text>

  <rect x="550" y="426" width="270" height="38" rx="6" fill="#fff" stroke="#F4C0D1" stroke-width="0.8"/>
  <text x="572" y="450" font-size="12" font-weight="600" fill="#72243E">💬 Discord</text>
  <text x="652" y="450" font-size="10" fill="#993556">웹훅 이벤트 알림</text>

  <!-- Arrows: Backend → External (dashed) -->
  <path d="M250 422 L250 301 L548 301" fill="none" stroke="#D4537E" stroke-width="1" stroke-dasharray="5 3" marker-end="url(#a)"/>
  <path d="M250 422 L490 422 L490 349 L548 349" fill="none" stroke="#D4537E" stroke-width="1" stroke-dasharray="5 3" marker-end="url(#a)"/>
  <path d="M250 480 L510 480 L510 445 L548 445" fill="none" stroke="#D4537E" stroke-width="1" stroke-dasharray="5 3" marker-end="url(#a)"/>

  <!-- ===== CI/CD ===== -->
  <rect x="530" y="530" width="310" height="66" rx="12" fill="#F2F8EA" stroke="#C0DD97" stroke-width="1"/>
  <text x="546" y="548" font-size="10" font-weight="600" fill="#3B6D11" letter-spacing="0.5">CI/CD</text>
  <rect x="550" y="558" width="270" height="30" rx="6" fill="#fff" stroke="#C0DD97" stroke-width="0.8"/>
  <text x="572" y="578" font-size="12" font-weight="600" fill="#27500A">🔄 GitHub Actions</text>
  <text x="716" y="578" font-size="10" fill="#3B6D11">빌드 → push → 배포</text>

  <!-- Arrow: GH → ghcr -->
  <line x1="685" y1="530" x2="685" y2="418" stroke="#639922" stroke-width="1" stroke-dasharray="5 3" marker-end="url(#a)"/>
  <text x="693" y="478" font-size="9" fill="#639922">push</text>

  <!-- Arrow: GH → Backend (SSH deploy) -->
  <path d="M550 573 L500 573 L500 500 L250 500 L250 482" fill="none" stroke="#639922" stroke-width="1" stroke-dasharray="5 3" marker-end="url(#a)"/>
  <text x="380" y="512" font-size="9" fill="#639922">SSH deploy</text>

  <!-- Arrow: ghcr → Backend -->
  <path d="M550 397 L500 397 L500 460 L480 460" fill="none" stroke="#D4537E" stroke-width="1" stroke-dasharray="5 3" marker-end="url(#a)"/>
  <text x="502" y="435" font-size="9" fill="#D4537E">docker pull</text>

  <!-- ===== ADMIN ===== -->
  <rect x="590" y="624" width="180" height="42" rx="21" fill="#fff" stroke="#9ca3af" stroke-width="1" filter="url(#shadow)"/>
  <text x="616" y="650" font-size="15">👤</text>
  <text x="640" y="650" font-size="13" font-weight="600" fill="#374151">관리자</text>

  <!-- Arrow: Admin → Grafana nginx -->
  <path d="M590 645 L395 645 L395 614" fill="none" stroke="#D85A30" stroke-width="1.5" marker-end="url(#a)"/>
  <text x="460" y="656" font-size="10" fill="#D85A30" font-weight="500">HTTPS</text>

  <!-- ===== LEGEND ===== -->
  <rect x="60" y="660" width="420" height="48" rx="8" fill="#fff" stroke="#e5e7eb" stroke-width="0.6"/>
  <line x1="80" y1="688" x2="104" y2="688" stroke="#374151" stroke-width="1.5" marker-end="url(#a)"/>
  <text x="110" y="692" font-size="10" fill="#6b7280">Data flow</text>
  <line x1="190" y1="688" x2="214" y2="688" stroke="#D4537E" stroke-width="1" stroke-dasharray="5 3" marker-end="url(#a)"/>
  <text x="220" y="692" font-size="10" fill="#6b7280">API / async</text>
  <line x1="310" y1="688" x2="334" y2="688" stroke="#639922" stroke-width="1" stroke-dasharray="5 3" marker-end="url(#a)"/>
  <text x="340" y="692" font-size="10" fill="#6b7280">CI/CD</text>
  <line x1="400" y1="688" x2="424" y2="688" stroke="#D85A30" stroke-width="1" stroke-dasharray="5 3" marker-end="url(#a)"/>
  <text x="430" y="692" font-size="10" fill="#6b7280">Logs</text>
</svg>
